<svg width="283" height="195" viewBox="0 0 283 195" fill="none" xmlns="http://www.w3.org/2000/svg">
<g clip-path="url(#clip0)">
<path opacity="0.1" d="M160.073 26.5472C141.933 26.5714 124.473 21.439 107.772 15.7374C91.071 10.0358 74.4987 3.65114 56.6961 0.945665C45.2467 -0.793395 32.2272 -0.633538 23.2773 5.68085C14.6624 11.7554 12.1677 21.8095 10.964 31.0983C10.0588 38.086 9.64145 45.4201 13.0316 51.812C15.3856 56.2492 19.414 59.9066 22.2533 64.1356C32.1641 78.8473 26.204 97.6403 16.5722 112.694C12.0561 119.756 6.76575 126.526 3.35132 133.993C-0.0631175 141.461 -1.46335 149.928 2.01903 157.299C5.46987 164.604 13.2646 169.906 21.6296 173.527C38.6168 180.895 58.3948 182.474 77.6413 183.082C120.245 184.431 162.932 181.68 205.504 178.928C221.259 177.911 237.083 176.886 252.513 173.939C261.079 172.304 269.9 169.877 275.975 164.558C283.684 157.805 285.262 146.78 279.651 138.855C270.243 125.562 245.434 123.055 238.688 108.673C234.967 100.755 238.176 91.6747 242.9 84.0427C253.035 67.667 270.478 52.9988 270.772 34.6829C270.973 22.105 261.902 9.83473 248.353 4.36808C234.152 -1.35774 214.789 0.114888 204.839 10.7866C194.608 21.7805 176.09 26.5302 160.073 26.5472Z" fill="#B247A7"/>
<path d="M240.862 156.312C240.862 156.312 237.879 154.348 234.924 155.745C234.924 155.745 235.834 157.494 239.576 157.329L240.862 156.312Z" fill="#B247A7"/>
<path d="M241.241 156.416C241.241 156.416 242.148 159.865 239.872 162.212C239.872 162.212 238.503 160.79 239.872 157.307L241.241 156.416Z" fill="#B247A7"/>
<path d="M244.949 153.105C244.949 153.105 244.728 150.172 238.091 151.146C238.091 151.146 238.059 153.037 240.389 153.934C242.718 154.83 243.786 154.074 244.949 153.105Z" fill="#B247A7"/>
<path d="M245.366 153.086C245.366 153.086 248.171 153.984 245.669 160.197C245.669 160.197 243.818 159.785 243.485 157.312C243.153 154.839 244.138 153.987 245.366 153.086Z" fill="#B247A7"/>
<path d="M249.113 148.925C249.113 148.925 249.494 144.097 242.711 144.591C242.711 144.591 242.226 148.951 247.917 150.085L249.113 148.925Z" fill="#B247A7"/>
<path d="M253.595 143.475C253.595 143.475 252.666 138.003 245.885 139.633C245.885 139.633 245.861 144.364 252.488 144.778L253.595 143.475Z" fill="#B247A7"/>
<path d="M256.871 137.841C256.871 137.841 255.313 132.512 248.596 134.106C248.596 134.106 250.195 138.9 256.425 138.824L256.871 137.841Z" fill="#B247A7"/>
<path d="M259.982 132.338C259.982 132.338 258.461 126.808 251.974 128.463C251.974 128.463 254.139 133.716 259.553 133.273L259.982 132.338Z" fill="#B247A7"/>
<path d="M261.987 127.111C261.987 127.111 260.817 120.349 254.77 121.846C254.77 121.846 256.527 127.998 261.543 128.097L261.987 127.111Z" fill="#B247A7"/>
<path d="M263.867 120.797C263.867 120.797 262.462 113.981 256.344 115.953C256.344 115.953 258.742 122.395 263.433 121.729L263.867 120.797Z" fill="#B247A7"/>
<path d="M265.023 114.921C265.023 114.921 262.792 108.103 258.063 108.287C258.063 108.287 260.341 115.488 264.627 116.28L265.023 114.921Z" fill="#B247A7"/>
<path d="M265.77 109.185C265.77 109.185 263.343 100.979 259.494 101.611C259.494 101.611 261.174 107.885 265.634 110.464L265.77 109.185Z" fill="#B247A7"/>
<path d="M266.192 102.343C266.192 102.343 263.916 95.5054 260.125 95.2317C260.125 95.2317 261.674 101.96 266.117 104.121L266.192 102.343Z" fill="#B247A7"/>
<path d="M266.651 95.9583C266.651 95.9583 263.814 89.1135 261.312 88.9585C261.312 88.9585 262.545 95.6992 266.408 97.0822L266.651 95.9583Z" fill="#B247A7"/>
<path d="M266.964 90.0194C266.964 90.0194 265.219 82.586 262.712 81.9684C262.712 81.9684 263.055 88.0503 266.712 90.5765L266.964 90.0194Z" fill="#B247A7"/>
<path d="M267.911 82.2396C267.911 82.2396 266.076 76.3127 264.045 75.4093C264.045 75.4093 264.445 82.397 267.442 83.688L267.911 82.2396Z" fill="#B247A7"/>
<path d="M268.694 77.1532L269.063 66.7043C269.063 66.7043 265.265 74.581 268.42 78.9868L268.694 77.1532Z" fill="#B247A7"/>
<path d="M271.626 66.76C271.626 66.76 274.361 59.1305 275.023 58.7042C275.023 58.7042 269.66 63.6549 270.185 70.0226L271.626 66.76Z" fill="#B247A7"/>
<path d="M249.297 148.888C249.297 148.888 254.107 148.261 253.964 155.045C253.964 155.045 249.618 155.752 248.198 150.14L249.297 148.888Z" fill="#B247A7"/>
<path d="M253.823 143.291C253.823 143.291 259.38 143.274 258.919 150.218C258.919 150.218 254.253 151.051 252.714 144.604L253.823 143.291Z" fill="#B247A7"/>
<path d="M256.925 138.289C256.925 138.289 261.97 135.928 265.197 142.024C265.197 142.024 260.538 143.991 256.478 139.275L256.925 138.289Z" fill="#B247A7"/>
<path d="M260.094 132.389C260.094 132.389 265.26 129.877 268.294 135.831C268.294 135.831 262.911 137.681 259.667 133.331L260.094 132.389Z" fill="#B247A7"/>
<path d="M261.921 127.259C261.921 127.259 266.894 122.519 270.861 127.312C270.861 127.312 265.782 131.214 261.693 128.315L261.921 127.259Z" fill="#B247A7"/>
<path d="M263.586 120.635C263.586 120.635 268.588 115.79 272.524 120.857C272.524 120.857 266.911 124.837 263.406 121.652L263.586 120.635Z" fill="#B247A7"/>
<path d="M264.52 114.727C264.52 114.727 268.374 108.672 272.912 110.023C272.912 110.023 268.913 116.435 264.564 116.149L264.52 114.727Z" fill="#B247A7"/>
<path d="M265.656 109.147C265.656 109.147 269.539 101.522 273.213 102.849C273.213 102.849 270.412 108.711 265.556 110.433L265.656 109.147Z" fill="#B247A7"/>
<path d="M265.925 101.946C265.925 101.946 269.917 95.9438 273.657 96.6777C273.657 96.6777 270.393 102.764 265.537 103.682L265.925 101.946Z" fill="#B247A7"/>
<path d="M266.236 95.8251C266.236 95.8251 269.33 89.0893 271.844 89.0433C271.844 89.0433 270.359 95.7307 266.445 96.9683L266.236 95.8251Z" fill="#B247A7"/>
<path d="M266.843 89.8741C266.843 89.8741 270.281 83.0535 272.866 83.0389C272.866 83.0389 271.107 88.8713 266.957 90.4723L266.843 89.8741Z" fill="#B247A7"/>
<path d="M267.36 82.6659C267.36 82.6659 269.932 77.0224 272.063 76.383C272.063 76.383 270.776 83.2617 267.644 84.1627L267.36 82.6659Z" fill="#B247A7"/>
<path d="M269 76.9474L274.749 68.2061C274.749 68.2061 273.276 76.8287 268.16 78.621L269 76.9474Z" fill="#B247A7"/>
<path d="M272.946 67.4649C272.946 67.4649 279.627 62.8629 279.87 62.1193C279.87 62.1193 276.472 68.5645 270.163 69.7029L272.946 67.4649Z" fill="#B247A7"/>
<path d="M273.347 65.394C273.347 65.394 281.017 58.0333 282.976 58.0405C282.976 58.0405 276.649 58.3288 273.162 65.0016L273.347 65.394Z" fill="#B247A7"/>
<path d="M267.435 83.7583L267.714 83.7946C269.155 72.5343 271.257 65.8711 273.63 65.0549L273.538 64.7885C271.022 65.6604 268.905 72.2218 267.435 83.7583Z" fill="#444053"/>
<path d="M265.314 110.687L265.736 110.721C265.826 109.67 265.894 108.594 265.94 107.521C266.343 98.2012 266.966 89.6415 267.787 83.2254L267.544 82.9227C266.721 89.3533 265.92 98.1697 265.518 107.504C265.471 108.57 265.404 109.641 265.314 110.687Z" fill="#444053"/>
<path d="M232.99 161.684C233.062 161.653 240.496 158.339 248.21 150.438C252.73 145.811 256.486 140.497 259.337 134.695C262.904 127.445 265.078 118.537 265.807 109.883L265.367 110.089C263.729 129.514 254.869 142.787 247.824 150.017C240.185 157.848 232.834 161.127 232.761 161.159L232.99 161.684Z" fill="#444053"/>
<path d="M252.236 20.6435H19.0548C18.5039 20.6435 17.9755 20.8619 17.586 21.2507C17.1964 21.6396 16.9775 22.1669 16.9775 22.7168V28.7575H254.313V22.7168C254.313 22.1669 254.095 21.6396 253.705 21.2507C253.315 20.8619 252.787 20.6435 252.236 20.6435V20.6435Z" fill="#3F3D56"/>
<path d="M16.9775 28.7574V164.695C16.9775 165.804 17.4188 166.867 18.2043 167.651C18.9898 168.435 20.0552 168.875 21.1661 168.875H250.125C251.236 168.875 252.301 168.435 253.087 167.651C253.872 166.867 254.313 165.804 254.313 164.695V28.7574H16.9775Z" fill="white"/>
<path opacity="0.8" d="M20.7366 25.6088C21.2727 25.6088 21.7073 25.175 21.7073 24.6399C21.7073 24.1048 21.2727 23.6711 20.7366 23.6711C20.2005 23.6711 19.7659 24.1048 19.7659 24.6399C19.7659 25.175 20.2005 25.6088 20.7366 25.6088Z" fill="#FA5959"/>
<path opacity="0.8" d="M23.406 25.6088C23.9421 25.6088 24.3767 25.175 24.3767 24.6399C24.3767 24.1048 23.9421 23.6711 23.406 23.6711C22.8699 23.6711 22.4353 24.1048 22.4353 24.6399C22.4353 25.175 22.8699 25.6088 23.406 25.6088Z" fill="#FED253"/>
<path opacity="0.8" d="M26.0754 25.6088C26.6115 25.6088 27.0461 25.175 27.0461 24.6399C27.0461 24.1048 26.6115 23.6711 26.0754 23.6711C25.5393 23.6711 25.1047 24.1048 25.1047 24.6399C25.1047 25.175 25.5393 25.6088 26.0754 25.6088Z" fill="#8CCF4D"/>
<path opacity="0.05" d="M229.781 51.4234H39.0391V135.136H229.781V51.4234Z" fill="black"/>
<path d="M228.325 52.058H40.4951V133.925H228.325V52.058Z" fill="#3F3D56"/>
<path d="M91.6996 73.1277C88.0039 73.1277 84.3912 74.2216 81.3183 76.2709C78.2454 78.3202 75.8504 81.2329 74.4361 84.6408C73.0218 88.0486 72.6517 91.7985 73.3727 95.4163C74.0937 99.0341 75.8734 102.357 78.4867 104.965C81.0999 107.574 84.4295 109.35 88.0542 110.07C91.6789 110.789 95.436 110.42 98.8504 109.008C102.265 107.597 105.183 105.206 107.236 102.139C109.29 99.0723 110.386 95.4665 110.386 91.7778C110.386 89.3287 109.902 86.9035 108.963 84.6408C108.024 82.378 106.648 80.3221 104.913 78.5902C103.177 76.8584 101.118 75.4847 98.8504 74.5474C96.5833 73.6101 94.1535 73.1277 91.6996 73.1277V73.1277ZM95.051 92.2259V101.057H88.4454V92.2259C87.5313 91.5353 86.8576 90.5756 86.5194 89.4822C86.1812 88.3889 86.1956 87.2171 86.5605 86.1324C86.9255 85.0477 87.6226 84.1047 88.5534 83.4367C89.4842 82.7686 90.6017 82.4093 91.7482 82.4093C92.8946 82.4093 94.0121 82.7686 94.943 83.4367C95.8738 84.1047 96.5708 85.0477 96.9358 86.1324C97.3008 87.2171 97.3152 88.3889 96.977 89.4822C96.6388 90.5756 95.9651 91.5353 95.051 92.2259V92.2259Z" fill="#B247A7"/>
<path opacity="0.05" d="M91.6996 73.1277C88.0039 73.1277 84.3912 74.2216 81.3183 76.2709C78.2454 78.3202 75.8504 81.2329 74.4361 84.6408C73.0218 88.0486 72.6517 91.7985 73.3727 95.4163C74.0937 99.0341 75.8734 102.357 78.4867 104.965C81.0999 107.574 84.4295 109.35 88.0542 110.07C91.6789 110.789 95.436 110.42 98.8504 109.008C102.265 107.597 105.183 105.206 107.236 102.139C109.29 99.0723 110.386 95.4665 110.386 91.7778C110.386 89.3287 109.902 86.9035 108.963 84.6408C108.024 82.378 106.648 80.3221 104.913 78.5902C103.177 76.8584 101.118 75.4847 98.8504 74.5474C96.5833 73.6101 94.1535 73.1277 91.6996 73.1277V73.1277ZM95.051 92.2259V101.057H88.4454V92.2259C87.5313 91.5353 86.8576 90.5756 86.5194 89.4822C86.1812 88.3889 86.1956 87.2171 86.5605 86.1324C86.9255 85.0477 87.6226 84.1047 88.5534 83.4367C89.4842 82.7686 90.6017 82.4093 91.7482 82.4093C92.8946 82.4093 94.0121 82.7686 94.943 83.4367C95.8738 84.1047 96.5708 85.0477 96.9358 86.1324C97.3008 87.2171 97.3152 88.3889 96.977 89.4822C96.6388 90.5756 95.9651 91.5353 95.051 92.2259V92.2259Z" fill="black"/>
<path d="M91.6996 67.7991C86.948 67.7991 82.303 69.2055 78.3521 71.8403C74.4013 74.4751 71.322 78.22 69.5036 82.6016C67.6852 86.9831 67.2094 91.8044 68.1364 96.4558C69.0634 101.107 71.3516 105.38 74.7115 108.733C78.0714 112.087 82.3523 114.371 87.0126 115.296C91.673 116.221 96.5035 115.746 100.894 113.931C105.283 112.116 109.036 109.043 111.676 105.1C114.315 101.156 115.724 96.5203 115.724 91.7778C115.724 85.4183 113.193 79.3192 108.688 74.8223C104.182 70.3255 98.0714 67.7991 91.6996 67.7991V67.7991ZM96.0071 92.3543V103.707H87.5135V92.3543C86.3377 91.4662 85.4712 90.232 85.0361 88.8259C84.601 87.4198 84.6194 85.9128 85.0887 84.5177C85.558 83.1226 86.4544 81.9098 87.6515 81.0506C88.8486 80.1914 90.2858 79.7292 91.7603 79.7292C93.2348 79.7292 94.672 80.1914 95.8691 81.0506C97.0661 81.9098 97.9626 83.1226 98.4319 84.5177C98.9012 85.9128 98.9196 87.4198 98.4845 88.8259C98.0494 90.232 97.1828 91.4662 96.0071 92.3543V92.3543Z" fill="#B247A7"/>
<path d="M203.33 88.6315H125.674V96.8666H203.33V88.6315Z" fill="white"/>
<path d="M203.33 103.648H186.585V111.884H203.33V103.648Z" fill="#B247A7"/>
<path d="M133.318 92.6255H131.913L133.163 91.3806C133.185 91.3575 133.198 91.3267 133.198 91.2946C133.198 91.2625 133.185 91.2316 133.163 91.2086C133.152 91.1972 133.138 91.1882 133.123 91.1821C133.109 91.1759 133.093 91.1728 133.077 91.1728C133.061 91.1728 133.045 91.1759 133.03 91.1821C133.015 91.1882 133.002 91.1972 132.99 91.2086L131.741 92.456V91.0512C131.741 91.019 131.728 90.9882 131.705 90.9655C131.682 90.9428 131.652 90.9301 131.619 90.9301C131.587 90.9307 131.557 90.9436 131.534 90.9662C131.512 90.9888 131.499 91.0192 131.498 91.0512V92.456L130.251 91.2013C130.239 91.19 130.226 91.181 130.211 91.1748C130.196 91.1687 130.181 91.1655 130.165 91.1655C130.149 91.1655 130.133 91.1687 130.118 91.1748C130.103 91.181 130.09 91.19 130.078 91.2013C130.056 91.2244 130.043 91.2552 130.043 91.2873C130.043 91.3194 130.056 91.3502 130.078 91.3733L131.328 92.6182H129.921C129.889 92.6189 129.858 92.6318 129.836 92.6544C129.813 92.677 129.8 92.7074 129.799 92.7394C129.799 92.7715 129.812 92.8023 129.835 92.825C129.858 92.8477 129.888 92.8605 129.921 92.8605H131.328L130.078 94.1078C130.056 94.1309 130.043 94.1617 130.043 94.1938C130.043 94.2259 130.056 94.2567 130.078 94.2798C130.102 94.3016 130.133 94.3137 130.165 94.3137C130.197 94.3137 130.227 94.3016 130.251 94.2798L131.498 93.0324V94.4348C131.498 94.4669 131.511 94.4977 131.534 94.5204C131.556 94.5432 131.587 94.5559 131.619 94.5559C131.652 94.5559 131.682 94.5432 131.705 94.5204C131.728 94.4977 131.741 94.4669 131.741 94.4348V93.0324L132.99 94.2798C133.014 94.3016 133.045 94.3137 133.077 94.3137C133.109 94.3137 133.139 94.3016 133.163 94.2798C133.185 94.2567 133.198 94.2259 133.198 94.1938C133.198 94.1617 133.185 94.1309 133.163 94.1078L131.913 92.8605H133.318C133.35 92.8605 133.381 92.8477 133.404 92.825C133.427 92.8023 133.439 92.7715 133.439 92.7394C133.438 92.7085 133.424 92.6795 133.401 92.6584C133.379 92.6372 133.349 92.6255 133.318 92.6255Z" fill="#B247A7"/>
<path d="M138.414 92.6255H137.009L138.259 91.3806C138.281 91.3575 138.294 91.3267 138.294 91.2946C138.294 91.2625 138.281 91.2316 138.259 91.2086C138.248 91.1972 138.234 91.1882 138.219 91.1821C138.205 91.1759 138.189 91.1728 138.173 91.1728C138.157 91.1728 138.141 91.1759 138.126 91.1821C138.111 91.1882 138.098 91.1972 138.087 91.2086L136.837 92.456V91.0512C136.837 91.019 136.824 90.9882 136.801 90.9655C136.779 90.9428 136.748 90.9301 136.716 90.9301C136.684 90.9307 136.653 90.9436 136.63 90.9662C136.608 90.9888 136.595 91.0192 136.594 91.0512V92.456L135.347 91.2013C135.336 91.19 135.322 91.181 135.307 91.1748C135.293 91.1687 135.277 91.1655 135.261 91.1655C135.245 91.1655 135.229 91.1687 135.214 91.1748C135.199 91.181 135.186 91.19 135.175 91.2013C135.152 91.2244 135.14 91.2552 135.14 91.2873C135.14 91.3194 135.152 91.3502 135.175 91.3733L136.424 92.6182H135.017C134.985 92.6189 134.954 92.6318 134.932 92.6544C134.909 92.677 134.896 92.7074 134.896 92.7394C134.896 92.7715 134.908 92.8023 134.931 92.825C134.954 92.8477 134.985 92.8605 135.017 92.8605H136.424L135.175 94.1078C135.152 94.1309 135.14 94.1617 135.14 94.1938C135.14 94.2259 135.152 94.2567 135.175 94.2798C135.198 94.3016 135.229 94.3137 135.261 94.3137C135.293 94.3137 135.324 94.3016 135.347 94.2798L136.594 93.0324V94.4348C136.594 94.4669 136.607 94.4977 136.63 94.5204C136.653 94.5432 136.683 94.5559 136.716 94.5559C136.748 94.5559 136.779 94.5432 136.801 94.5204C136.824 94.4977 136.837 94.4669 136.837 94.4348V93.0324L138.087 94.2798C138.11 94.3016 138.141 94.3137 138.173 94.3137C138.205 94.3137 138.236 94.3016 138.259 94.2798C138.281 94.2567 138.294 94.2259 138.294 94.1938C138.294 94.1617 138.281 94.1309 138.259 94.1078L137.009 92.8605H138.414C138.446 92.8605 138.477 92.8477 138.5 92.825C138.523 92.8023 138.536 92.7715 138.536 92.7394C138.534 92.7085 138.52 92.6795 138.498 92.6584C138.475 92.6372 138.445 92.6255 138.414 92.6255Z" fill="#B247A7"/>
<path d="M143.51 92.6255H142.105L143.355 91.3806C143.378 91.3575 143.39 91.3267 143.39 91.2946C143.39 91.2625 143.378 91.2316 143.355 91.2086C143.344 91.1972 143.33 91.1882 143.316 91.1821C143.301 91.1759 143.285 91.1728 143.269 91.1728C143.253 91.1728 143.237 91.1759 143.222 91.1821C143.208 91.1882 143.194 91.1972 143.183 91.2086L141.933 92.456V91.0512C141.933 91.019 141.92 90.9882 141.898 90.9655C141.875 90.9428 141.844 90.9301 141.812 90.9301C141.78 90.9307 141.749 90.9436 141.727 90.9662C141.704 90.9888 141.691 91.0192 141.69 91.0512V92.456L140.443 91.2013C140.432 91.19 140.418 91.181 140.404 91.1748C140.389 91.1687 140.373 91.1655 140.357 91.1655C140.341 91.1655 140.325 91.1687 140.31 91.1748C140.295 91.181 140.282 91.19 140.271 91.2013C140.248 91.2244 140.236 91.2552 140.236 91.2873C140.236 91.3194 140.248 91.3502 140.271 91.3733L141.521 92.6182H140.113C140.081 92.6189 140.051 92.6318 140.028 92.6544C140.005 92.677 139.992 92.7074 139.992 92.7394C139.992 92.7715 140.004 92.8023 140.027 92.825C140.05 92.8477 140.081 92.8605 140.113 92.8605H141.521L140.271 94.1078C140.248 94.1309 140.236 94.1617 140.236 94.1938C140.236 94.2259 140.248 94.2567 140.271 94.2798C140.294 94.3016 140.325 94.3137 140.357 94.3137C140.389 94.3137 140.42 94.3016 140.443 94.2798L141.69 93.0324V94.4348C141.69 94.4669 141.703 94.4977 141.726 94.5204C141.749 94.5432 141.78 94.5559 141.812 94.5559C141.844 94.5559 141.875 94.5432 141.898 94.5204C141.92 94.4977 141.933 94.4669 141.933 94.4348V93.0324L143.183 94.2798C143.206 94.3016 143.237 94.3137 143.269 94.3137C143.301 94.3137 143.332 94.3016 143.355 94.2798C143.378 94.2567 143.39 94.2259 143.39 94.1938C143.39 94.1617 143.378 94.1309 143.355 94.1078L142.105 92.8605H143.51C143.543 92.8605 143.574 92.8477 143.596 92.825C143.619 92.8023 143.632 92.7715 143.632 92.7394C143.63 92.7085 143.616 92.6795 143.594 92.6584C143.571 92.6372 143.541 92.6255 143.51 92.6255Z" fill="#B247A7"/>
<path d="M148.607 92.6255H147.202L148.451 91.3806C148.474 91.3575 148.486 91.3267 148.486 91.2946C148.486 91.2625 148.474 91.2316 148.451 91.2086C148.44 91.1972 148.427 91.1882 148.412 91.1821C148.397 91.1759 148.381 91.1728 148.365 91.1728C148.349 91.1728 148.333 91.1759 148.319 91.1821C148.304 91.1882 148.29 91.1972 148.279 91.2086L147.029 92.456V91.0512C147.029 91.019 147.017 90.9882 146.994 90.9655C146.971 90.9428 146.94 90.9301 146.908 90.9301C146.876 90.9307 146.845 90.9436 146.823 90.9662C146.8 90.9888 146.787 91.0192 146.787 91.0512V92.456L145.539 91.2013C145.528 91.19 145.515 91.181 145.5 91.1748C145.485 91.1687 145.469 91.1655 145.453 91.1655C145.437 91.1655 145.421 91.1687 145.406 91.1748C145.392 91.181 145.378 91.19 145.367 91.2013C145.345 91.2244 145.332 91.2552 145.332 91.2873C145.332 91.3194 145.345 91.3502 145.367 91.3733L146.617 92.6182H145.209C145.177 92.6189 145.147 92.6318 145.124 92.6544C145.101 92.677 145.089 92.7074 145.088 92.7394C145.088 92.7715 145.101 92.8023 145.123 92.825C145.146 92.8477 145.177 92.8605 145.209 92.8605H146.617L145.367 94.1078C145.345 94.1309 145.332 94.1617 145.332 94.1938C145.332 94.2259 145.345 94.2567 145.367 94.2798C145.39 94.3016 145.421 94.3137 145.453 94.3137C145.485 94.3137 145.516 94.3016 145.539 94.2798L146.787 93.0324V94.4348C146.787 94.4669 146.799 94.4977 146.822 94.5204C146.845 94.5432 146.876 94.5559 146.908 94.5559C146.94 94.5559 146.971 94.5432 146.994 94.5204C147.017 94.4977 147.029 94.4669 147.029 94.4348V93.0324L148.279 94.2798C148.302 94.3016 148.333 94.3137 148.365 94.3137C148.397 94.3137 148.428 94.3016 148.451 94.2798C148.474 94.2567 148.486 94.2259 148.486 94.1938C148.486 94.1617 148.474 94.1309 148.451 94.1078L147.202 92.8605H148.607C148.639 92.8605 148.67 92.8477 148.692 92.825C148.715 92.8023 148.728 92.7715 148.728 92.7394C148.726 92.7085 148.713 92.6795 148.69 92.6584C148.667 92.6372 148.638 92.6255 148.607 92.6255Z" fill="#B247A7"/>
<path d="M153.703 92.6255H152.298L153.548 91.3806C153.57 91.3575 153.582 91.3267 153.582 91.2946C153.582 91.2625 153.57 91.2316 153.548 91.2086C153.536 91.1972 153.523 91.1882 153.508 91.1821C153.493 91.1759 153.477 91.1728 153.461 91.1728C153.445 91.1728 153.43 91.1759 153.415 91.1821C153.4 91.1882 153.387 91.1972 153.375 91.2086L152.125 92.456V91.0512C152.125 91.019 152.113 90.9882 152.09 90.9655C152.067 90.9428 152.036 90.9301 152.004 90.9301C151.972 90.9307 151.942 90.9436 151.919 90.9662C151.896 90.9888 151.883 91.0192 151.883 91.0512V92.456L150.635 91.2013C150.624 91.19 150.611 91.181 150.596 91.1748C150.581 91.1687 150.565 91.1655 150.549 91.1655C150.533 91.1655 150.517 91.1687 150.503 91.1748C150.488 91.181 150.474 91.19 150.463 91.2013C150.441 91.2244 150.428 91.2552 150.428 91.2873C150.428 91.3194 150.441 91.3502 150.463 91.3733L151.713 92.6182H150.305C150.273 92.6189 150.243 92.6318 150.22 92.6544C150.198 92.677 150.185 92.7074 150.184 92.7394C150.184 92.7715 150.197 92.8023 150.22 92.825C150.242 92.8477 150.273 92.8605 150.305 92.8605H151.713L150.463 94.1078C150.441 94.1309 150.428 94.1617 150.428 94.1938C150.428 94.2259 150.441 94.2567 150.463 94.2798C150.487 94.3016 150.517 94.3137 150.549 94.3137C150.581 94.3137 150.612 94.3016 150.635 94.2798L151.883 93.0324V94.4348C151.883 94.4669 151.896 94.4977 151.918 94.5204C151.941 94.5432 151.972 94.5559 152.004 94.5559C152.036 94.5559 152.067 94.5432 152.09 94.5204C152.113 94.4977 152.125 94.4669 152.125 94.4348V93.0324L153.375 94.2798C153.399 94.3016 153.429 94.3137 153.461 94.3137C153.493 94.3137 153.524 94.3016 153.548 94.2798C153.57 94.2567 153.582 94.2259 153.582 94.1938C153.582 94.1617 153.57 94.1309 153.548 94.1078L152.298 92.8605H153.703C153.735 92.8605 153.766 92.8477 153.789 92.825C153.811 92.8023 153.824 92.7715 153.824 92.7394C153.822 92.7085 153.809 92.6795 153.786 92.6584C153.764 92.6372 153.734 92.6255 153.703 92.6255Z" fill="#B247A7"/>
<path d="M158.799 92.6255H157.394L158.644 91.3806C158.666 91.3575 158.679 91.3267 158.679 91.2946C158.679 91.2625 158.666 91.2316 158.644 91.2086C158.632 91.1972 158.619 91.1882 158.604 91.1821C158.589 91.1759 158.574 91.1728 158.558 91.1728C158.542 91.1728 158.526 91.1759 158.511 91.1821C158.496 91.1882 158.483 91.1972 158.471 91.2086L157.222 92.456V91.0512C157.222 91.019 157.209 90.9882 157.186 90.9655C157.163 90.9428 157.132 90.9301 157.1 90.9301C157.068 90.9307 157.038 90.9436 157.015 90.9662C156.993 90.9888 156.98 91.0192 156.979 91.0512V92.456L155.732 91.2013C155.72 91.19 155.707 91.181 155.692 91.1748C155.677 91.1687 155.662 91.1655 155.645 91.1655C155.629 91.1655 155.614 91.1687 155.599 91.1748C155.584 91.181 155.571 91.19 155.559 91.2013C155.537 91.2244 155.524 91.2552 155.524 91.2873C155.524 91.3194 155.537 91.3502 155.559 91.3733L156.809 92.6182H155.402C155.37 92.6189 155.339 92.6318 155.316 92.6544C155.294 92.677 155.281 92.7074 155.28 92.7394C155.28 92.7715 155.293 92.8023 155.316 92.825C155.339 92.8477 155.369 92.8605 155.402 92.8605H156.809L155.559 94.1078C155.537 94.1309 155.524 94.1617 155.524 94.1938C155.524 94.2259 155.537 94.2567 155.559 94.2798C155.583 94.3016 155.613 94.3137 155.645 94.3137C155.677 94.3137 155.708 94.3016 155.732 94.2798L156.979 93.0324V94.4348C156.979 94.4669 156.992 94.4977 157.015 94.5204C157.037 94.5432 157.068 94.5559 157.1 94.5559C157.132 94.5559 157.163 94.5432 157.186 94.5204C157.209 94.4977 157.222 94.4669 157.222 94.4348V93.0324L158.471 94.2798C158.495 94.3016 158.526 94.3137 158.558 94.3137C158.59 94.3137 158.62 94.3016 158.644 94.2798C158.666 94.2567 158.679 94.2259 158.679 94.1938C158.679 94.1617 158.666 94.1309 158.644 94.1078L157.394 92.8605H158.799C158.831 92.8605 158.862 92.8477 158.885 92.825C158.908 92.8023 158.92 92.7715 158.92 92.7394C158.919 92.7085 158.905 92.6795 158.882 92.6584C158.86 92.6372 158.83 92.6255 158.799 92.6255Z" fill="#B247A7"/>
<path d="M163.895 92.6255H162.49L163.74 91.3806C163.762 91.3575 163.775 91.3267 163.775 91.2946C163.775 91.2625 163.762 91.2316 163.74 91.2086C163.729 91.1972 163.715 91.1882 163.7 91.1821C163.686 91.1759 163.67 91.1728 163.654 91.1728C163.638 91.1728 163.622 91.1759 163.607 91.1821C163.592 91.1882 163.579 91.1972 163.568 91.2086L162.318 92.456V91.0512C162.318 91.019 162.305 90.9882 162.282 90.9655C162.26 90.9428 162.229 90.9301 162.197 90.9301C162.165 90.9307 162.134 90.9436 162.111 90.9662C162.089 90.9888 162.076 91.0192 162.075 91.0512V92.456L160.828 91.2013C160.817 91.19 160.803 91.181 160.788 91.1748C160.774 91.1687 160.758 91.1655 160.742 91.1655C160.726 91.1655 160.71 91.1687 160.695 91.1748C160.68 91.181 160.667 91.19 160.656 91.2013C160.633 91.2244 160.621 91.2552 160.621 91.2873C160.621 91.3194 160.633 91.3502 160.656 91.3733L161.905 92.6182H160.498C160.466 92.6189 160.435 92.6318 160.413 92.6544C160.39 92.677 160.377 92.7074 160.376 92.7394C160.376 92.7715 160.389 92.8023 160.412 92.825C160.435 92.8477 160.466 92.8605 160.498 92.8605H161.905L160.656 94.1078C160.633 94.1309 160.621 94.1617 160.621 94.1938C160.621 94.2259 160.633 94.2567 160.656 94.2798C160.679 94.3016 160.71 94.3137 160.742 94.3137C160.774 94.3137 160.804 94.3016 160.828 94.2798L162.075 93.0324V94.4348C162.075 94.4669 162.088 94.4977 162.111 94.5204C162.133 94.5432 162.164 94.5559 162.197 94.5559C162.229 94.5559 162.26 94.5432 162.282 94.5204C162.305 94.4977 162.318 94.4669 162.318 94.4348V93.0324L163.568 94.2798C163.591 94.3016 163.622 94.3137 163.654 94.3137C163.686 94.3137 163.717 94.3016 163.74 94.2798C163.762 94.2567 163.775 94.2259 163.775 94.1938C163.775 94.1617 163.762 94.1309 163.74 94.1078L162.49 92.8605H163.895C163.927 92.8605 163.958 92.8477 163.981 92.825C164.004 92.8023 164.017 92.7715 164.017 92.7394C164.015 92.7085 164.001 92.6795 163.979 92.6584C163.956 92.6372 163.926 92.6255 163.895 92.6255Z" fill="#B247A7"/>
<path d="M168.991 92.6255H167.586L168.836 91.3806C168.859 91.3575 168.871 91.3267 168.871 91.2946C168.871 91.2625 168.859 91.2316 168.836 91.2086C168.825 91.1972 168.811 91.1882 168.797 91.1821C168.782 91.1759 168.766 91.1728 168.75 91.1728C168.734 91.1728 168.718 91.1759 168.703 91.1821C168.689 91.1882 168.675 91.1972 168.664 91.2086L167.414 92.456V91.0512C167.414 91.019 167.401 90.9882 167.379 90.9655C167.356 90.9428 167.325 90.9301 167.293 90.9301C167.261 90.9307 167.23 90.9436 167.208 90.9662C167.185 90.9888 167.172 91.0192 167.171 91.0512V92.456L165.924 91.2013C165.913 91.19 165.899 91.181 165.885 91.1748C165.87 91.1687 165.854 91.1655 165.838 91.1655C165.822 91.1655 165.806 91.1687 165.791 91.1748C165.776 91.181 165.763 91.19 165.752 91.2013C165.729 91.2244 165.717 91.2552 165.717 91.2873C165.717 91.3194 165.729 91.3502 165.752 91.3733L167.002 92.6182H165.594C165.562 92.6189 165.531 92.6318 165.509 92.6544C165.486 92.677 165.473 92.7074 165.473 92.7394C165.473 92.7715 165.485 92.8023 165.508 92.825C165.531 92.8477 165.562 92.8605 165.594 92.8605H167.002L165.752 94.1078C165.729 94.1309 165.717 94.1617 165.717 94.1938C165.717 94.2259 165.729 94.2567 165.752 94.2798C165.775 94.3016 165.806 94.3137 165.838 94.3137C165.87 94.3137 165.901 94.3016 165.924 94.2798L167.171 93.0324V94.4348C167.171 94.4669 167.184 94.4977 167.207 94.5204C167.23 94.5432 167.261 94.5559 167.293 94.5559C167.325 94.5559 167.356 94.5432 167.379 94.5204C167.401 94.4977 167.414 94.4669 167.414 94.4348V93.0324L168.664 94.2798C168.687 94.3016 168.718 94.3137 168.75 94.3137C168.782 94.3137 168.813 94.3016 168.836 94.2798C168.859 94.2567 168.871 94.2259 168.871 94.1938C168.871 94.1617 168.859 94.1309 168.836 94.1078L167.586 92.8605H168.991C169.024 92.8605 169.054 92.8477 169.077 92.825C169.1 92.8023 169.113 92.7715 169.113 92.7394C169.111 92.7085 169.097 92.6795 169.075 92.6584C169.052 92.6372 169.022 92.6255 168.991 92.6255Z" fill="#B247A7"/>
<path d="M174.088 92.6255H172.683L173.932 91.3806C173.955 91.3575 173.967 91.3267 173.967 91.2946C173.967 91.2625 173.955 91.2316 173.932 91.2086C173.921 91.1972 173.908 91.1882 173.893 91.1821C173.878 91.1759 173.862 91.1728 173.846 91.1728C173.83 91.1728 173.814 91.1759 173.799 91.1821C173.785 91.1882 173.771 91.1972 173.76 91.2086L172.51 92.456V91.0512C172.51 91.019 172.497 90.9882 172.475 90.9655C172.452 90.9428 172.421 90.9301 172.389 90.9301C172.357 90.9307 172.326 90.9436 172.304 90.9662C172.281 90.9888 172.268 91.0192 172.268 91.0512V92.456L171.02 91.2013C171.009 91.19 170.996 91.181 170.981 91.1748C170.966 91.1687 170.95 91.1655 170.934 91.1655C170.918 91.1655 170.902 91.1687 170.887 91.1748C170.873 91.181 170.859 91.19 170.848 91.2013C170.826 91.2244 170.813 91.2552 170.813 91.2873C170.813 91.3194 170.826 91.3502 170.848 91.3733L172.098 92.6182H170.69C170.658 92.6189 170.628 92.6318 170.605 92.6544C170.582 92.677 170.569 92.7074 170.569 92.7394C170.569 92.7715 170.582 92.8023 170.604 92.825C170.627 92.8477 170.658 92.8605 170.69 92.8605H172.098L170.848 94.1078C170.826 94.1309 170.813 94.1617 170.813 94.1938C170.813 94.2259 170.826 94.2567 170.848 94.2798C170.871 94.3016 170.902 94.3137 170.934 94.3137C170.966 94.3137 170.997 94.3016 171.02 94.2798L172.268 93.0324V94.4348C172.268 94.4669 172.28 94.4977 172.303 94.5204C172.326 94.5432 172.357 94.5559 172.389 94.5559C172.421 94.5559 172.452 94.5432 172.475 94.5204C172.497 94.4977 172.51 94.4669 172.51 94.4348V93.0324L173.76 94.2798C173.783 94.3016 173.814 94.3137 173.846 94.3137C173.878 94.3137 173.909 94.3016 173.932 94.2798C173.955 94.2567 173.967 94.2259 173.967 94.1938C173.967 94.1617 173.955 94.1309 173.932 94.1078L172.683 92.8605H174.088C174.12 92.8605 174.151 92.8477 174.173 92.825C174.196 92.8023 174.209 92.7715 174.209 92.7394C174.207 92.7085 174.194 92.6795 174.171 92.6584C174.148 92.6372 174.119 92.6255 174.088 92.6255Z" fill="#B247A7"/>
<path d="M179.184 92.6255H177.779L179.029 91.3806C179.051 91.3575 179.063 91.3267 179.063 91.2946C179.063 91.2625 179.051 91.2316 179.029 91.2086C179.017 91.1972 179.004 91.1882 178.989 91.1821C178.974 91.1759 178.958 91.1728 178.942 91.1728C178.926 91.1728 178.91 91.1759 178.896 91.1821C178.881 91.1882 178.867 91.1972 178.856 91.2086L177.606 92.456V91.0512C177.606 91.019 177.594 90.9882 177.571 90.9655C177.548 90.9428 177.517 90.9301 177.485 90.9301C177.453 90.9307 177.423 90.9436 177.4 90.9662C177.377 90.9888 177.364 91.0192 177.364 91.0512V92.456L176.116 91.2013C176.105 91.19 176.092 91.181 176.077 91.1748C176.062 91.1687 176.046 91.1655 176.03 91.1655C176.014 91.1655 175.998 91.1687 175.984 91.1748C175.969 91.181 175.955 91.19 175.944 91.2013C175.922 91.2244 175.909 91.2552 175.909 91.2873C175.909 91.3194 175.922 91.3502 175.944 91.3733L177.194 92.6182H175.786C175.754 92.6189 175.724 92.6318 175.701 92.6544C175.679 92.677 175.666 92.7074 175.665 92.7394C175.665 92.7715 175.678 92.8023 175.701 92.825C175.723 92.8477 175.754 92.8605 175.786 92.8605H177.194L175.944 94.1078C175.922 94.1309 175.909 94.1617 175.909 94.1938C175.909 94.2259 175.922 94.2567 175.944 94.2798C175.967 94.3016 175.998 94.3137 176.03 94.3137C176.062 94.3137 176.093 94.3016 176.116 94.2798L177.364 93.0324V94.4348C177.364 94.4669 177.377 94.4977 177.399 94.5204C177.422 94.5432 177.453 94.5559 177.485 94.5559C177.517 94.5559 177.548 94.5432 177.571 94.5204C177.594 94.4977 177.606 94.4669 177.606 94.4348V93.0324L178.856 94.2798C178.88 94.3016 178.91 94.3137 178.942 94.3137C178.974 94.3137 179.005 94.3016 179.029 94.2798C179.051 94.2567 179.063 94.2259 179.063 94.1938C179.063 94.1617 179.051 94.1309 179.029 94.1078L177.779 92.8605H179.184C179.216 92.8605 179.247 92.8477 179.27 92.825C179.292 92.8023 179.305 92.7715 179.305 92.7394C179.303 92.7085 179.29 92.6795 179.267 92.6584C179.245 92.6372 179.215 92.6255 179.184 92.6255Z" fill="#B247A7"/>
<path d="M184.28 92.6255H182.875L184.125 91.3806C184.147 91.3575 184.16 91.3267 184.16 91.2946C184.16 91.2625 184.147 91.2316 184.125 91.2086C184.113 91.1972 184.1 91.1882 184.085 91.1821C184.07 91.1759 184.055 91.1728 184.038 91.1728C184.022 91.1728 184.007 91.1759 183.992 91.1821C183.977 91.1882 183.964 91.1972 183.952 91.2086L182.703 92.456V91.0512C182.703 91.019 182.69 90.9882 182.667 90.9655C182.644 90.9428 182.613 90.9301 182.581 90.9301C182.549 90.9307 182.519 90.9436 182.496 90.9662C182.474 90.9888 182.461 91.0192 182.46 91.0512V92.456L181.213 91.2013C181.201 91.19 181.188 91.181 181.173 91.1748C181.158 91.1687 181.142 91.1655 181.126 91.1655C181.11 91.1655 181.095 91.1687 181.08 91.1748C181.065 91.181 181.052 91.19 181.04 91.2013C181.018 91.2244 181.005 91.2552 181.005 91.2873C181.005 91.3194 181.018 91.3502 181.04 91.3733L182.29 92.6182H180.883C180.851 92.6189 180.82 92.6318 180.797 92.6544C180.775 92.677 180.762 92.7074 180.761 92.7394C180.761 92.7715 180.774 92.8023 180.797 92.825C180.82 92.8477 180.85 92.8605 180.883 92.8605H182.29L181.04 94.1078C181.018 94.1309 181.005 94.1617 181.005 94.1938C181.005 94.2259 181.018 94.2567 181.04 94.2798C181.064 94.3016 181.094 94.3137 181.126 94.3137C181.158 94.3137 181.189 94.3016 181.213 94.2798L182.46 93.0324V94.4348C182.46 94.4669 182.473 94.4977 182.495 94.5204C182.518 94.5432 182.549 94.5559 182.581 94.5559C182.613 94.5559 182.644 94.5432 182.667 94.5204C182.69 94.4977 182.703 94.4669 182.703 94.4348V93.0324L183.952 94.2798C183.976 94.3016 184.007 94.3137 184.038 94.3137C184.07 94.3137 184.101 94.3016 184.125 94.2798C184.147 94.2567 184.16 94.2259 184.16 94.1938C184.16 94.1617 184.147 94.1309 184.125 94.1078L182.875 92.8605H184.28C184.312 92.8605 184.343 92.8477 184.366 92.825C184.389 92.8023 184.401 92.7715 184.401 92.7394C184.399 92.7085 184.386 92.6795 184.363 92.6584C184.341 92.6372 184.311 92.6255 184.28 92.6255Z" fill="#B247A7"/>
<path d="M223.348 122.09C223.341 121.797 223.305 121.506 223.239 121.221C223.021 120.402 222.528 119.411 221.717 119.164C220.881 118.909 220.072 118.568 219.305 118.147C219.16 115.551 219.757 112.894 219.106 110.377C218.864 109.457 218.463 108.575 218.356 107.633C218.223 106.461 218.543 105.211 218.075 104.13C217.706 103.278 216.895 102.677 216.024 102.362C215.153 102.047 214.214 101.963 213.289 101.878C212.124 101.783 208.353 101.338 207.038 102.377C206.947 102.447 206.866 102.529 206.795 102.619V102.619C206.766 102.659 206.74 102.701 206.718 102.745L206.706 102.764C206.679 102.815 206.657 102.868 206.64 102.922V102.922C206.622 102.981 206.608 103.042 206.599 103.104C206.599 103.123 206.599 103.142 206.599 103.162C206.599 103.181 206.599 103.246 206.599 103.29V103.355C206.599 103.399 206.599 103.443 206.599 103.489C206.599 103.535 206.599 103.523 206.599 103.539C206.616 103.757 206.647 103.975 206.647 104.191C206.65 104.298 206.64 104.406 206.618 104.511C206.537 104.796 206.4 105.063 206.215 105.295V105.295L206.172 105.358C206.145 105.397 206.118 105.434 206.094 105.472C206.07 105.511 206.05 105.54 206.031 105.574C206.012 105.608 205.992 105.63 205.975 105.661C205.952 105.701 205.931 105.742 205.912 105.785C205.912 105.809 205.885 105.831 205.876 105.855C205.845 105.92 205.821 105.989 205.803 106.058C205.746 106.269 205.741 106.49 205.788 106.703C205.854 106.974 205.966 107.233 206.121 107.466C206.181 107.565 206.247 107.662 206.315 107.759L206.485 107.989C206.453 108.214 206.436 108.44 206.434 108.667C206.434 109.425 206.606 110.174 206.939 110.856C207.271 111.538 207.754 112.137 208.351 112.605C208.447 113.628 208.436 114.658 208.319 115.679C208.298 115.892 208.271 116.108 208.242 116.321C208.213 116.534 208.191 116.674 208.162 116.851C207.807 116.902 207.445 116.875 207.101 116.771C206.943 116.701 206.781 116.639 206.616 116.585C205.91 116.408 205.189 117.11 204.49 116.897C204.49 116.931 204.471 116.963 204.458 116.994C204.313 116.904 204.145 116.854 203.973 116.851C203.558 116.832 203.221 116.532 202.92 116.248L201.995 115.379C201.935 115.325 201.881 115.265 201.835 115.199C201.785 115.105 201.748 115.005 201.723 114.901C201.568 114.4 201.192 114 200.828 113.62C200.759 113.533 200.668 113.467 200.563 113.429C200.523 113.423 200.482 113.423 200.442 113.429C200.417 113.395 200.391 113.363 200.362 113.332C200.299 113.26 200.232 113.192 200.161 113.129C199.719 112.722 199.675 112.373 199.292 111.917C198.957 111.483 198.654 111.026 198.384 110.549C198.353 110.295 198.309 110.033 198.256 109.769C198.133 109.165 197.955 108.573 197.724 108.001L197.239 106.928L197.183 106.984C196.831 106.461 196.455 106.175 196.118 106.243C195.552 106.359 195.273 107.454 195.363 108.885L195.557 110.338C195.557 110.375 195.574 110.411 195.584 110.447C195.549 110.619 195.531 110.795 195.53 110.97C195.53 111.174 195.72 111.324 195.819 111.506C195.978 111.752 196.063 112.039 196.062 112.332C196.05 112.436 196.018 112.535 196.013 112.637C196.027 112.864 196.106 113.083 196.241 113.267L197.455 115.301L197.697 115.727L197.712 115.747C197.789 115.896 197.9 116.024 198.037 116.12C198.085 116.629 198.22 117.127 198.438 117.59C198.479 117.682 198.525 117.769 198.574 117.856C198.9 118.392 199.284 118.89 199.719 119.341L200.297 119.988C200.867 120.622 201.437 121.259 202.056 121.846C202.277 122.081 202.545 122.268 202.842 122.395C202.988 122.454 203.146 122.472 203.301 122.45C203.456 122.427 203.603 122.364 203.726 122.267C203.726 122.567 203.726 122.868 203.726 123.168C203.816 123.174 203.903 123.203 203.978 123.253C204.052 123.304 204.112 123.373 204.152 123.454C204.191 123.535 204.207 123.626 204.2 123.715C204.192 123.805 204.161 123.891 204.109 123.965C203.599 125.27 203.085 126.588 202.313 127.758C202.858 128.08 203.363 128.464 203.818 128.904C204.113 129.23 204.375 129.585 204.602 129.962C204.623 130.141 204.64 130.318 204.65 130.495C204.83 133.382 203.711 136.247 202.709 138.999C202.42 139.779 202.104 140.595 202.129 141.406C201.939 141.523 201.757 141.654 201.585 141.796C201.784 142.315 201.706 142.777 201.685 143.332C201.677 143.665 201.609 143.993 201.483 144.301C201.378 144.514 201.261 144.722 201.134 144.923C200.505 146.03 200.367 147.345 200.241 148.61C200.165 149.373 200.462 150.305 200.115 150.988C199.515 152.161 198.984 153.41 198.901 154.713C198.898 155.007 198.861 155.298 198.79 155.583C198.714 155.825 198.581 156.031 198.513 156.268C198.443 156.586 198.427 156.914 198.464 157.237C198.511 158.398 198.338 159.558 197.955 160.655C197.651 161.519 197.316 162.445 197.554 163.334C196.969 163.947 196.607 164.74 196.528 165.584C196.522 165.8 196.496 166.014 196.45 166.226C196.376 166.441 196.278 166.649 196.159 166.843C195.67 167.731 195.442 168.738 195.499 169.75C194.771 170.736 194.407 171.951 194.191 173.16C193.975 174.369 193.88 175.599 193.604 176.793C193.235 178.372 192.567 179.969 192.436 181.586C191.65 182.088 191.31 183.059 191.16 183.977C191.009 184.895 190.985 185.859 190.599 186.707C190.4 187.148 190.114 187.542 189.925 187.993C189.792 188.352 189.694 188.722 189.633 189.1C189.517 189.691 189.415 190.35 189.558 190.916C189.352 191.134 189.112 191.316 188.847 191.456C188.886 191.306 188.918 191.156 188.944 191.004C188.318 191.57 187.182 191.372 186.682 192.052C186.532 192.272 186.474 192.541 186.519 192.803C186.564 193.064 186.71 193.298 186.925 193.455C187.082 193.55 187.251 193.622 187.427 193.67C188.641 194.058 189.888 194.448 191.136 194.242C191.283 194.226 191.426 194.181 191.555 194.109C191.718 193.989 191.851 193.836 191.946 193.658C192.133 193.363 192.32 193.067 192.504 192.772C192.951 192.905 193.406 193.011 193.866 193.089C193.912 193.477 193.946 193.864 193.963 194.252C194.205 194.3 194.531 194.315 194.645 194.089C194.679 194.004 194.693 193.912 194.686 193.82C194.686 193.648 194.71 193.421 194.725 193.188H194.773C195.514 193.218 196.25 193.069 196.921 192.755C196.661 190.609 197.518 188.511 198.26 186.482C199.044 184.345 199.717 182.17 200.394 179.995C200.879 178.464 201.415 176.982 201.891 175.449C202.489 173.511 203.091 171.574 203.694 169.636C203.956 168.783 204.221 167.94 204.521 167.093C205.155 165.377 205.907 163.708 206.771 162.096C207.014 161.638 207.256 161.185 207.455 160.71C207.698 160.132 207.87 159.526 208.065 158.928C208.488 157.7 208.997 156.504 209.589 155.348C209.606 155.316 209.618 155.287 209.635 155.258C209.831 156.06 210.028 156.874 210.159 157.68C210.336 158.669 210.35 159.681 210.2 160.674C210.084 161.35 209.863 162.018 209.889 162.704C209.926 163.651 210.433 164.511 210.683 165.424C210.844 166.107 210.935 166.805 210.955 167.507C211.023 168.597 211.615 169.82 211.197 170.83C209.899 174.03 210.528 177.643 209.788 181.003C209.407 182.727 208.239 184.348 208.331 186.111C208.396 187.362 208.506 188.611 208.662 189.855C208.699 190.248 208.801 190.632 208.965 190.991C209.062 191.18 209.173 191.362 209.297 191.534C209.191 191.575 209.101 191.684 209.023 191.914C208.824 192.52 209.023 193.271 209.562 193.61C209.781 193.727 210.018 193.809 210.263 193.852C210.593 193.946 210.935 193.993 211.278 193.992C211.384 193.987 211.49 193.974 211.595 193.954C211.971 194.111 212.354 194.248 212.743 194.365C212.743 194.465 212.763 194.564 212.775 194.663C212.776 194.715 212.787 194.766 212.809 194.814C212.831 194.861 212.862 194.903 212.901 194.937C212.962 194.965 213.029 194.977 213.095 194.971H214.413C214.413 194.862 214.413 194.751 214.413 194.642C214.564 194.657 214.716 194.641 214.86 194.594C215.005 194.548 215.137 194.471 215.25 194.37C215.367 194.222 215.45 194.05 215.493 193.866C215.852 192.651 216.209 191.434 216.563 190.216C216.988 188.871 217.165 187.459 217.085 186.05C216.616 181.586 217.645 177.108 217.31 172.632C217.109 169.942 217.248 167.237 217.723 164.581C217.832 163.98 217.966 163.37 218.014 162.772C218.121 161.643 217.99 160.502 218.07 159.381C218.097 158.988 218.15 158.598 218.199 158.208C218.531 155.788 218.705 153.349 218.72 150.906C218.713 150.096 218.663 149.288 218.57 148.484C218.823 148.419 219.053 148.285 219.232 148.096C219.448 147.815 219.393 147.42 219.39 147.062C219.39 146.205 219.752 145.396 220.043 144.587C220.417 143.471 220.723 142.334 220.96 141.181C221.211 140.252 221.348 139.297 221.368 138.335C221.368 138.238 221.363 138.141 221.353 138.045C221.445 137.981 221.521 137.899 221.577 137.802C221.64 137.66 221.679 137.509 221.693 137.354C221.781 136.737 221.87 136.117 221.958 135.497C222.022 135.052 222.086 134.609 222.149 134.167L222.921 128.792C222.987 128.325 223.055 127.86 223.12 127.395L223.321 126.004C223.343 125.84 223.368 125.675 223.385 125.52C223.977 124.532 223.411 123.214 223.348 122.09ZM216.91 142.213C216.624 141.535 216.357 140.84 216.425 140.108H216.398C216.462 139.883 216.451 139.643 216.366 139.425C216.291 139.248 216.16 139.098 216.08 138.921C215.994 138.706 215.95 138.475 215.949 138.243C215.889 136.77 216.005 135.295 216.296 133.85C216.328 133.68 216.362 133.508 216.393 133.338C216.495 133.28 216.588 133.207 216.67 133.123C216.797 132.978 216.903 132.814 216.983 132.638C217.257 132.089 217.507 131.529 217.738 130.96C217.813 130.776 217.922 130.563 218.109 130.517C218.07 131.934 218.216 133.38 217.638 134.658C217.528 134.865 217.447 135.085 217.395 135.312C217.342 135.673 217.492 136.039 217.439 136.398C217.412 136.584 217.332 136.756 217.301 136.94C217.277 137.03 217.277 137.126 217.302 137.216C217.327 137.306 217.375 137.388 217.441 137.454C217.474 137.476 217.509 137.494 217.546 137.507C217.531 137.604 217.519 137.703 217.509 137.798C217.49 137.996 217.48 138.183 217.468 138.299C217.412 138.891 217.39 139.487 217.403 140.082C217.403 140.723 217.427 141.365 217.417 142.019C217.426 142.207 217.395 142.394 217.325 142.569C217.277 142.659 217.215 142.741 217.141 142.811C217.07 142.593 216.993 142.402 216.91 142.213Z" fill="url(#paint0_linear)"/>
<path d="M197.754 114.109C198.494 113.958 198.746 112.139 198.317 110.046C197.887 107.953 196.939 106.379 196.198 106.531C195.457 106.682 195.205 108.501 195.635 110.594C196.065 112.687 197.013 114.261 197.754 114.109Z" fill="#FBBEBE"/>
<path d="M209.062 191.96C208.863 192.561 209.062 193.312 209.601 193.639C209.819 193.755 210.054 193.837 210.297 193.881C210.626 193.974 210.967 194.02 211.309 194.019C211.729 194 212.132 193.835 212.552 193.777C212.6 193.765 212.651 193.772 212.695 193.796C212.716 193.819 212.731 193.846 212.741 193.875C212.75 193.904 212.752 193.935 212.748 193.966C212.753 194.204 212.77 194.442 212.802 194.678C212.802 194.73 212.813 194.781 212.835 194.828C212.857 194.875 212.888 194.917 212.928 194.952C212.988 194.98 213.055 194.991 213.122 194.985H214.437C214.467 193.832 214.34 192.68 214.061 191.561C214.043 191.475 214.01 191.393 213.964 191.318C213.852 191.196 213.706 191.112 213.544 191.076C213.222 190.943 212.875 190.882 212.527 190.899C212.103 190.955 211.748 191.229 211.387 191.456C211.025 191.684 210.532 191.885 210.093 191.769C209.654 191.653 209.288 191.287 209.062 191.96Z" fill="#3F3D56"/>
<path d="M189.75 190.897C189.38 191.292 188.926 191.6 188.422 191.798L188.199 191.905C188.168 191.916 188.142 191.937 188.124 191.965C188.12 191.984 188.12 192.004 188.124 192.022C188.128 192.041 188.136 192.059 188.148 192.074C188.334 192.361 188.608 192.579 188.93 192.696C189.251 192.813 189.602 192.821 189.929 192.721C190.074 192.685 190.208 192.615 190.32 192.517C190.505 192.298 190.611 192.024 190.621 191.737C190.694 191.442 190.682 191.132 190.585 190.844C190.247 190.086 190.123 190.43 189.75 190.897Z" fill="#FBBEBE"/>
<path d="M194.793 193.881C194.8 193.973 194.786 194.065 194.751 194.15C194.637 194.373 194.319 194.361 194.072 194.312C194.034 193.49 193.935 192.673 193.773 191.866C193.303 191.844 192.963 192.29 192.71 192.689L192.06 193.719C191.966 193.896 191.833 194.05 191.672 194.169C191.542 194.24 191.399 194.285 191.252 194.302C190.01 194.508 188.755 194.118 187.556 193.731C187.379 193.684 187.21 193.612 187.054 193.518C186.84 193.361 186.695 193.128 186.65 192.867C186.605 192.606 186.662 192.337 186.811 192.118C187.313 191.44 188.442 191.633 189.068 191.071C189.003 191.467 188.895 191.854 188.748 192.227C189.585 192.101 190.148 191.335 190.822 190.824C190.992 190.681 191.196 190.584 191.415 190.543C191.578 190.53 191.743 190.547 191.9 190.594C192.678 190.79 193.406 191.147 194.035 191.643C194.29 191.844 194.688 192.127 194.8 192.437C194.919 192.808 194.793 193.486 194.793 193.881Z" fill="#3F3D56"/>
<path d="M211.486 113.967C214.255 113.967 216.5 111.726 216.5 108.963C216.5 106.199 214.255 103.958 211.486 103.958C208.717 103.958 206.472 106.199 206.472 108.963C206.472 111.726 208.717 113.967 211.486 113.967Z" fill="#FBBEBE"/>
<path d="M221.363 138.507C221.343 139.464 221.207 140.415 220.958 141.339C220.72 142.486 220.414 143.619 220.04 144.73C219.752 145.536 219.39 146.345 219.393 147.2C219.393 147.556 219.451 147.951 219.232 148.232C219.038 148.429 218.793 148.569 218.524 148.636C218.39 148.672 218.266 148.738 218.162 148.831C218.058 148.923 217.978 149.038 217.927 149.167C217.699 148.827 217.528 148.452 217.422 148.058C216.987 146.727 216.582 145.389 216.209 144.044C216.174 143.967 216.16 143.882 216.166 143.798C216.172 143.713 216.198 143.632 216.243 143.56C216.304 143.506 216.376 143.466 216.454 143.441C216.702 143.34 216.93 143.194 217.126 143.01C217.218 142.929 217.293 142.831 217.349 142.722C217.42 142.548 217.452 142.361 217.444 142.174C217.444 141.532 217.444 140.893 217.427 140.251C217.417 139.659 217.439 139.066 217.495 138.476C217.495 138.359 217.517 138.173 217.536 137.974C217.572 137.594 217.645 137.153 217.852 137.006C218.16 136.8 219.082 137.076 219.431 137.124C220.033 137.207 220.645 137.303 221.232 137.417C221.317 137.774 221.361 138.14 221.363 138.507Z" fill="#3F3D56"/>
<path d="M201.119 114.565C200.925 114.952 200.459 115.139 200.1 115.384L198.87 116.226C198.787 116.3 198.691 116.357 198.586 116.393C198.482 116.428 198.371 116.443 198.26 116.435C198.16 116.398 198.069 116.341 197.991 116.268C197.913 116.196 197.85 116.108 197.807 116.011C197.807 116.004 197.807 115.998 197.807 115.991L197.552 115.565L196.338 113.535C196.204 113.354 196.125 113.136 196.113 112.911C196.113 112.806 196.149 112.71 196.159 112.605C196.162 112.313 196.078 112.026 195.916 111.782C195.819 111.6 195.625 111.45 195.63 111.247C195.621 110.979 195.667 110.713 195.766 110.464C195.893 110.234 196.076 110.039 196.297 109.897C196.411 109.815 196.528 109.738 196.649 109.655C196.713 109.611 196.785 109.579 196.86 109.558C197.062 109.517 197.261 109.684 197.464 109.692C198.341 110.278 198.678 111.387 199.367 112.186C199.755 112.642 199.794 112.99 200.233 113.397C200.304 113.46 200.372 113.528 200.437 113.598C200.524 113.693 200.598 113.799 200.656 113.913C200.736 114.122 201.219 114.366 201.119 114.565Z" fill="#3F3D56"/>
<path d="M209.724 113.969C210.086 114.732 210.368 115.57 210.263 116.408C210.242 116.635 210.17 116.854 210.052 117.05C209.703 117.585 208.97 117.682 208.331 117.714C208.197 117.702 208.062 117.718 207.933 117.759C207.805 117.801 207.686 117.868 207.584 117.956C207.499 118.079 207.457 118.228 207.465 118.378C207.474 118.528 207.532 118.671 207.63 118.784C207.835 119.003 208.09 119.169 208.373 119.269C209.382 119.712 210.472 120.078 211.569 119.976C212.078 119.927 212.573 119.78 213.081 119.705C213.634 119.645 214.189 119.614 214.745 119.612C215.405 119.588 216.063 119.523 216.721 119.457L218.463 119.285C218.558 119.287 218.651 119.253 218.723 119.191C218.851 119.041 218.686 118.82 218.526 118.707C217.602 118.024 216.425 117.554 215.898 116.527C215.655 116.042 215.58 115.466 215.401 114.943C215.221 114.42 214.935 113.947 214.823 113.414C214.764 112.947 214.737 112.476 214.743 112.005C214.749 111.53 214.576 111.07 214.258 110.716C213.911 110.394 213.408 110.312 212.937 110.292C211.777 110.241 210.542 110.518 209.72 111.334C209.499 111.554 209.309 111.818 209.081 112.017C208.853 112.215 208.543 112.274 208.693 112.535C208.844 112.797 209.14 112.959 209.3 113.189C209.462 113.437 209.604 113.698 209.724 113.969V113.969Z" fill="#FBBEBE"/>
<path d="M219.608 121.015C219.302 122.88 218.805 124.709 218.123 126.472C217.781 127.268 217.489 128.085 217.25 128.918C217.063 129.669 217.099 130.473 216.927 131.226C216.713 132.164 216.5 133.104 216.328 134.048C216.038 135.491 215.923 136.962 215.983 138.432C215.983 138.664 216.028 138.893 216.114 139.108C216.194 139.282 216.323 139.432 216.398 139.612C216.454 139.769 216.477 139.936 216.465 140.103C216.454 140.27 216.408 140.432 216.33 140.58C216.205 140.858 216.037 141.113 215.83 141.336C213.568 142.01 211.149 141.789 208.792 141.932C206.621 142.063 204.424 142.508 202.284 142.138C202.041 141.169 202.447 140.154 202.794 139.21C203.801 136.465 204.915 133.607 204.735 130.732C204.716 130.397 204.678 130.063 204.621 129.732C204.269 127.695 204.652 125.585 205.266 123.611C205.647 122.381 205.63 121.071 205.543 119.789C205.5 119.373 205.494 118.954 205.526 118.537C205.561 118.111 205.72 117.705 205.982 117.367C205.982 117.35 206.004 117.333 206.016 117.316C206.028 117.299 206.123 117.302 206.198 117.316C206.217 117.324 206.238 117.329 206.259 117.329C206.28 117.329 206.3 117.324 206.32 117.316L206.346 117.299C206.357 117.292 206.369 117.288 206.381 117.288C206.394 117.288 206.406 117.292 206.417 117.299C206.472 117.333 206.504 117.45 206.625 117.471C206.805 117.498 206.985 117.515 207.167 117.522C207.384 117.529 207.601 117.56 207.812 117.614H207.841C208.157 117.667 208.481 117.64 208.783 117.534C208.984 117.484 209.178 117.409 209.36 117.311C209.414 117.253 209.749 117.2 209.817 117.159C210.037 117.026 209.989 116.401 210.035 116.144C210.06 115.887 210.122 115.634 210.217 115.393C210.327 115.216 210.48 115.068 210.661 114.963C210.842 114.857 211.046 114.798 211.256 114.79C211.673 114.78 212.091 114.818 212.501 114.901C213.406 115.03 214.333 115.008 215.221 115.216C215.667 115.321 216.155 115.478 216.565 115.274C216.677 115.301 216.694 115.398 216.694 115.517C216.683 115.629 216.661 115.741 216.626 115.849C216.471 116.517 216.997 117.132 217.483 117.617C217.688 117.845 217.93 118.037 218.199 118.186C218.441 118.297 218.684 118.343 218.927 118.464C219.123 118.569 219.29 118.722 219.412 118.908C219.552 119.121 219.646 119.361 219.689 119.612C219.741 120.081 219.714 120.555 219.608 121.015Z" fill="#3F3D56"/>
<path opacity="0.1" d="M219.608 121.015C219.302 122.88 218.805 124.709 218.123 126.472C217.781 127.268 217.489 128.085 217.25 128.918C217.063 129.669 217.099 130.473 216.927 131.226C216.713 132.164 216.5 133.104 216.327 134.048C216.277 134.077 216.223 134.104 216.17 134.128C215.868 134.272 215.548 134.375 215.218 134.433C214.627 134.505 214.028 134.485 213.442 134.375L209.979 133.912C208.596 133.726 207.123 133.501 206.096 132.566C205.526 132.052 205.152 131.374 204.742 130.72C204.723 130.385 204.685 130.051 204.628 129.72C204.276 127.683 204.66 125.573 205.274 123.599C205.655 122.369 205.638 121.058 205.55 119.777C205.507 119.361 205.501 118.942 205.533 118.525C205.568 118.099 205.727 117.693 205.99 117.355C206.06 117.334 206.133 117.318 206.206 117.307V117.307C206.254 117.297 206.304 117.29 206.354 117.287H206.424C206.506 117.288 206.587 117.297 206.667 117.316C206.832 117.369 206.994 117.431 207.152 117.503H207.181C207.389 117.571 207.608 117.602 207.827 117.595C208.147 117.595 208.477 117.544 208.797 117.522C209.193 117.46 209.598 117.533 209.948 117.728C210.173 117.909 210.387 118.104 210.588 118.312C210.831 118.502 211.104 118.65 211.396 118.75C213.485 119.546 215.803 119.497 217.856 118.615C218.054 118.503 218.277 118.446 218.504 118.45C218.672 118.483 218.831 118.55 218.97 118.648C219.116 118.733 219.259 118.816 219.407 118.891C219.547 119.104 219.641 119.344 219.684 119.595C219.739 120.069 219.714 120.549 219.608 121.015V121.015Z" fill="black"/>
<path d="M221.722 119.411C220.756 119.117 219.827 118.71 218.956 118.2C218.816 118.103 218.657 118.035 218.49 118.002C218.262 117.999 218.038 118.056 217.839 118.166C215.787 119.049 213.47 119.098 211.382 118.302C211.09 118.201 210.817 118.053 210.574 117.864C210.372 117.657 210.158 117.462 209.933 117.28C209.135 116.764 208.03 117.37 207.137 117.038C206.979 116.967 206.817 116.905 206.652 116.851C205.946 116.674 205.228 117.377 204.533 117.164C204.275 117.864 204.084 118.588 203.963 119.324C203.865 120.17 203.812 121.021 203.805 121.872C203.805 122.383 203.781 122.894 203.805 123.405C203.891 123.419 203.973 123.451 204.045 123.498C204.118 123.545 204.18 123.607 204.228 123.679C204.26 123.764 204.273 123.854 204.266 123.944C204.259 124.034 204.233 124.121 204.189 124.2C203.682 125.501 203.167 126.816 202.398 127.981C202.94 128.303 203.443 128.687 203.898 129.124C204.747 130.02 205.164 131.277 206.082 132.106C207.116 133.038 208.589 133.266 209.965 133.45L213.428 133.912C214.014 134.022 214.614 134.042 215.206 133.973C215.535 133.913 215.854 133.81 216.155 133.665C216.352 133.583 216.531 133.465 216.684 133.317C216.812 133.172 216.918 133.008 216.997 132.832C217.271 132.285 217.521 131.725 217.752 131.159C217.832 130.958 217.953 130.723 218.172 130.706C219.458 129.548 220.671 128.361 221.958 127.203C222.474 126.776 222.938 126.288 223.338 125.75C223.977 124.808 223.397 123.473 223.338 122.335C223.331 122.044 223.295 121.754 223.229 121.47C223.02 120.644 222.53 119.656 221.722 119.411Z" fill="#B247A7"/>
<path opacity="0.1" d="M201.119 114.565C200.925 114.952 200.459 115.139 200.1 115.383L198.869 116.226C198.787 116.3 198.691 116.357 198.586 116.393C198.482 116.428 198.371 116.443 198.26 116.435C198.16 116.398 198.068 116.341 197.991 116.268C197.913 116.196 197.85 116.108 197.807 116.011C197.807 115.955 197.807 115.895 197.807 115.836C197.797 115.64 197.823 115.444 197.884 115.258C198.005 114.984 198.191 114.744 198.428 114.56C198.885 114.128 199.428 113.798 200.022 113.591C200.115 113.555 200.215 113.545 200.313 113.562C200.351 113.572 200.387 113.587 200.42 113.608C200.507 113.703 200.58 113.809 200.639 113.923C200.736 114.122 201.219 114.366 201.119 114.565Z" fill="black"/>
<path d="M204.017 117.118C203.604 117.098 203.267 116.8 202.966 116.517L202.046 115.664C201.984 115.612 201.931 115.552 201.886 115.485C201.836 115.391 201.799 115.291 201.774 115.187C201.579 114.698 201.274 114.26 200.881 113.908C200.813 113.822 200.721 113.756 200.617 113.719C200.518 113.701 200.416 113.711 200.323 113.749C199.729 113.955 199.185 114.285 198.729 114.717C198.492 114.902 198.306 115.141 198.185 115.415C198.124 115.602 198.098 115.798 198.107 115.994C198.113 116.634 198.257 117.265 198.53 117.844C198.571 117.934 198.617 118.024 198.666 118.111C198.989 118.645 199.372 119.141 199.806 119.591L200.384 120.235C200.952 120.87 201.519 121.504 202.136 122.088C202.357 122.323 202.625 122.51 202.922 122.635C203.071 122.696 203.235 122.715 203.394 122.689C203.553 122.663 203.702 122.595 203.825 122.49C203.941 122.356 204.029 122.199 204.082 122.03C204.456 121.061 204.81 120.053 204.832 119.009C204.837 118.591 204.819 118.173 204.779 117.757C204.742 117.316 204.429 117.144 204.017 117.118Z" fill="#B247A7"/>
<path d="M218.723 151.027C218.709 153.463 218.535 155.896 218.204 158.31C218.155 158.7 218.102 159.09 218.075 159.48C217.995 160.611 218.126 161.747 218.019 162.871C217.963 163.479 217.837 164.082 217.73 164.675C217.256 167.324 217.117 170.022 217.318 172.705C217.653 177.169 216.626 181.635 217.092 186.087C217.149 186.952 217.1 187.822 216.949 188.676C216.862 189.206 216.736 189.729 216.573 190.241C216.218 191.453 215.863 192.664 215.505 193.874C215.463 194.058 215.38 194.23 215.262 194.378C215.139 194.484 214.993 194.564 214.836 194.61C214.679 194.656 214.514 194.669 214.352 194.646C212.952 194.603 211.634 194 210.363 193.411C210.216 193.354 210.081 193.272 209.962 193.169C209.698 192.895 209.72 192.464 209.603 192.103C209.487 191.742 209.171 191.403 208.992 191.033C208.844 190.682 208.755 190.31 208.727 189.931C208.565 188.69 208.455 187.446 208.397 186.196C208.305 184.437 209.47 182.819 209.853 181.109C210.581 177.747 209.965 174.143 211.258 170.954C211.666 169.946 211.074 168.725 211.015 167.64C210.995 166.94 210.903 166.244 210.744 165.562C210.501 164.651 209.989 163.794 209.953 162.849C209.926 162.166 210.147 161.5 210.261 160.827C210.412 159.836 210.398 158.827 210.22 157.84C210.091 157.026 209.894 156.213 209.698 155.418L209.654 155.508C209.063 156.661 208.554 157.855 208.133 159.08C207.938 159.674 207.769 160.279 207.526 160.856C207.327 161.34 207.082 161.783 206.841 162.239C205.98 163.845 205.23 165.508 204.597 167.216C204.296 168.054 204.031 168.912 203.769 169.752L201.971 175.565C201.486 177.094 200.954 178.571 200.479 180.097C199.806 182.277 199.134 184.437 198.353 186.569C197.625 188.591 196.758 190.686 197.018 192.823C196.349 193.136 195.614 193.285 194.875 193.256C193.624 193.146 192.397 192.849 191.235 192.374C190.772 192.203 190.291 192.009 189.978 191.628C189.439 190.972 189.573 190.011 189.735 189.175C189.797 188.798 189.894 188.428 190.027 188.07C190.211 187.625 190.512 187.23 190.701 186.789C191.082 185.944 191.106 184.987 191.257 184.069C191.407 183.151 191.742 182.182 192.529 181.683C192.662 180.07 193.327 178.479 193.693 176.902C193.97 175.708 194.062 174.48 194.281 173.269C194.499 172.058 194.851 170.847 195.584 169.866C195.526 168.855 195.755 167.847 196.244 166.959C196.362 166.765 196.459 166.557 196.533 166.342C196.578 166.131 196.604 165.917 196.61 165.702C196.691 164.861 197.051 164.07 197.634 163.457C197.392 162.573 197.729 161.65 198.032 160.793C198.414 159.699 198.587 158.543 198.542 157.385C198.504 157.062 198.52 156.734 198.588 156.416C198.656 156.174 198.79 155.968 198.867 155.736C198.936 155.451 198.973 155.159 198.976 154.866C199.071 153.556 199.603 152.32 200.19 151.15C200.539 150.467 200.243 149.54 200.316 148.779C200.442 147.515 200.58 146.207 201.209 145.105C201.325 144.897 201.452 144.698 201.556 144.482C201.682 144.175 201.751 143.846 201.757 143.514C201.779 142.959 201.857 142.499 201.658 141.983C202.956 140.905 204.728 140.602 206.417 140.53C208.106 140.457 209.814 140.61 211.467 140.251C211.952 140.142 212.438 139.992 212.95 139.919C214.112 139.75 215.291 140.014 216.439 140.275C216.359 141.002 216.626 141.699 216.925 142.375C218.09 145.113 218.701 148.053 218.723 151.027V151.027Z" fill="#33313F"/>
<path opacity="0.1" d="M213.008 151.582L210.219 157.84C210.091 157.026 209.894 156.213 209.698 155.418L209.654 155.508V155.377L211.173 152.042L213.008 151.582Z" fill="black"/>
<path opacity="0.1" d="M221.363 138.507C221.202 138.627 221.01 138.699 220.81 138.713C220.502 138.724 220.195 138.682 219.902 138.59L217.718 138.045C217.65 138.028 217.583 138.004 217.519 137.974C217.555 137.594 217.628 137.153 217.835 137.006C218.143 136.8 219.065 137.076 219.414 137.124C220.016 137.207 220.628 137.303 221.215 137.417C221.306 137.774 221.356 138.139 221.363 138.507V138.507Z" fill="black"/>
<path d="M223.21 124.096C223.256 124.297 223.322 124.495 223.36 124.699C223.426 125.198 223.408 125.704 223.309 126.198L223.11 127.584L222.911 128.976L222.142 134.336L221.953 135.664L221.686 137.517C221.673 137.671 221.634 137.822 221.569 137.962C221.49 138.094 221.379 138.204 221.246 138.282C221.114 138.36 220.964 138.404 220.81 138.41C220.503 138.42 220.196 138.378 219.902 138.287L217.718 137.739C217.622 137.722 217.531 137.685 217.451 137.63C217.384 137.565 217.336 137.484 217.312 137.394C217.287 137.304 217.286 137.209 217.31 137.119C217.342 136.935 217.422 136.763 217.449 136.579C217.502 136.221 217.352 135.853 217.405 135.497C217.457 135.27 217.539 135.051 217.648 134.845C218.376 133.239 217.954 131.364 218.201 129.621C218.424 128.248 219.005 126.958 219.885 125.881C220.429 125.201 221.053 124.589 221.744 124.059C222.016 123.849 222.448 123.415 222.79 123.333C223.229 123.241 223.137 123.791 223.21 124.096Z" fill="#B247A7"/>
<path d="M206.681 103.232C206.521 103.74 206.771 104.3 206.657 104.818C206.533 105.39 205.994 105.787 205.841 106.361C205.599 107.236 206.341 108.032 206.885 108.759C208.899 111.457 208.635 115.192 207.945 118.484C207.391 121.125 206.624 123.717 205.652 126.234C205.349 127.017 205.014 127.811 204.417 128.397C205.533 128.078 206.72 127.756 207.839 128.066C209.256 128.458 210.479 129.831 211.916 129.519C212.78 129.327 213.386 128.562 214.163 128.138C215.619 127.356 217.373 127.848 218.997 128.099C219.347 128.182 219.713 128.163 220.053 128.046C220.312 127.907 220.533 127.704 220.693 127.458C221.418 126.53 221.852 125.409 221.941 124.236C221.979 123.652 221.893 123.067 221.687 122.518C221.482 121.97 221.162 121.472 220.749 121.056C220.404 120.731 219.992 120.47 219.727 120.087C219.47 119.64 219.332 119.135 219.327 118.619C219.135 115.955 219.786 113.235 219.116 110.658C218.873 109.74 218.478 108.861 218.371 107.921C218.237 106.751 218.555 105.499 218.089 104.428C217.723 103.578 216.915 102.975 216.044 102.665C215.172 102.355 214.24 102.268 213.316 102.181C211.986 102.069 207.237 101.5 206.681 103.232Z" fill="#33313F"/>
<g opacity="0.1">
<path opacity="0.1" d="M207.945 118.484C207.394 121.114 206.631 123.695 205.664 126.203C205.832 125.871 205.972 125.522 206.106 125.176C207.079 122.659 207.846 120.067 208.399 117.425C209.091 114.131 209.355 110.401 207.341 107.701C206.856 107.056 206.232 106.359 206.254 105.603C206.075 105.832 205.935 106.089 205.841 106.364C205.599 107.238 206.341 108.035 206.885 108.762C208.899 111.457 208.635 115.192 207.945 118.484Z" fill="black"/>
<path opacity="0.1" d="M206.686 104.574C206.881 104.332 207.026 104.055 207.113 103.757C207.15 103.398 207.141 103.035 207.084 102.677C206.897 102.818 206.757 103.011 206.681 103.232C206.538 103.661 206.703 104.126 206.686 104.574Z" fill="black"/>
<path opacity="0.1" d="M221.149 126.392C220.989 126.638 220.768 126.84 220.509 126.978C220.17 127.098 219.803 127.116 219.453 127.031C217.83 126.789 216.056 126.29 214.619 127.072C213.84 127.494 213.236 128.259 212.369 128.453C210.935 128.773 209.712 127.399 208.295 127C207.29 126.721 206.232 126.951 205.22 127.242C205.019 127.67 204.748 128.061 204.417 128.4C205.533 128.08 206.72 127.758 207.839 128.068C209.256 128.46 210.479 129.834 211.916 129.521C212.78 129.33 213.386 128.565 214.163 128.141C215.619 127.358 217.373 127.85 218.997 128.102C219.347 128.184 219.713 128.166 220.053 128.049C220.312 127.909 220.533 127.707 220.693 127.46C221.133 126.881 221.473 126.233 221.698 125.542C221.536 125.838 221.352 126.122 221.149 126.392Z" fill="black"/>
</g>
</g>
<defs>
<linearGradient id="paint0_linear" x1="186.52" y1="148.334" x2="223.649" y2="148.334" gradientUnits="userSpaceOnUse">
<stop stop-color="#808080" stop-opacity="0.25"/>
<stop offset="0.54" stop-color="#808080" stop-opacity="0.12"/>
<stop offset="1" stop-color="#808080" stop-opacity="0.1"/>
</linearGradient>
<clipPath id="clip0">
<rect width="283" height="195" fill="white"/>
</clipPath>
</defs>
</svg>
